<svg xmlns="http://www.w3.org/2000/svg" width="16" height="16">
    <path fill="#222" d="M7.5 0C3.371 0 0 3.371 0 7.5S3.371 15 7.5 15 15 11.629 15 7.5 11.629 0 7.5 0zm0 2c.258 0 .504.023.75.055.191.261.383.593.55 1.027.106.277.204.586.29.918H5.91c.086-.332.184-.64.29-.918a4.43 4.43 0 0 1 .55-1.027C6.996 2.023 7.242 2 7.5 2zm-2.086.406c-.05.11-.105.203-.148.317-.149.386-.27.82-.38 1.277H3.27a5.475 5.475 0 0 1 2.144-1.594zm4.172 0A5.475 5.475 0 0 1 11.73 4h-1.617c-.11-.457-.23-.89-.379-1.277-.043-.114-.097-.207-.148-.317zM2.606 5h2.081a16.06 16.06 0 0 0-.167 2H2.04a5.4 5.4 0 0 1 .565-2zm3.093 0h3.602c.101.617.156 1.293.18 2H5.52c.023-.707.078-1.383.18-2zm4.613 0h2.083a5.42 5.42 0 0 1 .566 2h-2.48c-.02-.7-.07-1.371-.169-2zM2.04 8h2.48c.02.7.07 1.375.168 2H2.605a5.398 5.398 0 0 1-.566-2zm3.48 0h3.96a15.657 15.657 0 0 1-.18 2H5.7a15.657 15.657 0 0 1-.18-2zm4.961 0h2.48a5.398 5.398 0 0 1-.565 2h-2.083c.098-.625.149-1.3.168-2zm-7.21 3h1.617c.11.457.23.89.379 1.273.043.118.097.211.148.32A5.475 5.475 0 0 1 3.27 11zm2.64 0h3.18c-.086.332-.184.64-.29.918a4.43 4.43 0 0 1-.55 1.027c-.246.032-.496.055-.75.055s-.504-.023-.75-.055a4.43 4.43 0 0 1-.55-1.027A8.803 8.803 0 0 1 5.91 11zm4.203 0h1.617a5.475 5.475 0 0 1-2.144 1.594c.05-.11.105-.203.148-.32.149-.383.27-.817.38-1.274zm0 0"/>
</svg>
