<?xml version="1.0" encoding="UTF-8"?>
<svg xmlns="http://www.w3.org/2000/svg" height="16px" viewBox="0 0 16 16" width="16px"><path d="m 7.5 0 c -4.15625 0 -7.5 3.34375 -7.5 7.5 c 0 3.714844 2.675781 6.777344 6.207031 7.386719 c 0.328125 0.660156 1.003907 1.113281 1.792969 1.113281 h 5.980469 c 1.109375 0 2 -0.890625 2 -2 v -6 c 0 -0.78125 -0.441407 -1.453125 -1.09375 -1.78125 c -0.605469 -3.539062 -3.667969 -6.21875 -7.386719 -6.21875 z m -1.875 2.324219 c -0.472656 0.503906 -0.867188 1.070312 -1.171875 1.675781 h -1.203125 l 0.003906 -0.003906 c 0.617188 -0.75 1.4375 -1.335938 2.375 -1.671875 z m 2.375 0.039062 c 0.605469 0.460938 1.101562 1.015625 1.480469 1.636719 h -1.480469 z m 1.5 0.015625 c 0.882812 0.339844 1.652344 0.902344 2.242188 1.621094 h -1.121094 c -0.296875 -0.585938 -0.667969 -1.132812 -1.121094 -1.621094 z m -2.5 0.042969 v 1.578125 h -1.398438 c 0.363282 -0.59375 0.828126 -1.128906 1.398438 -1.578125 z m -4.402344 2.578125 h 1.441406 c -0.214843 0.644531 -0.347656 1.320312 -0.390624 2 h -1.625 c 0.0625 -0.714844 0.265624 -1.390625 0.574218 -2 z m 2.507813 0 h 1.894531 v 1.269531 c -0.304688 0.171875 -0.558594 0.425781 -0.730469 0.730469 h -1.613281 c 0.046875 -0.683594 0.195312 -1.359375 0.449219 -2 z m 2.894531 0 h 1.976562 c 0.128907 0.324219 0.230469 0.660156 0.304688 1 h -2.28125 z m 3.039062 0 h 1.363282 c 0.160156 0.316406 0.289062 0.652344 0.390625 1 h -1.492188 c -0.066406 -0.339844 -0.152343 -0.671875 -0.261719 -1 z m -9.019531 3 h 1.628907 c 0.046874 0.679688 0.175781 1.355469 0.394531 2 h -1.441407 c -0.308593 -0.609375 -0.515624 -1.285156 -0.582031 -2 z m 2.636719 0 h 1.34375 v 2 h -0.890625 c -0.253906 -0.636719 -0.402344 -1.316406 -0.453125 -2 z m 3.34375 0 h 1 c 0.242188 0.007812 0.421875 0.082031 0.6875 0.3125 l 1.3125 1.28125 l 1.28125 -1.28125 c 0.175781 -0.183594 0.433594 -0.300781 0.6875 -0.3125 h 1.03125 v 1 c 0.023438 0.28125 -0.070312 0.554688 -0.28125 0.75 l -1.28125 1.28125 l 1.28125 1.25 c 0.1875 0.1875 0.28125 0.453125 0.28125 0.71875 v 1 h -1 c -0.265625 -0.007812 -0.53125 -0.09375 -0.71875 -0.28125 l -1.28125 -1.28125 l -1.28125 1.28125 c -0.175781 0.199219 -0.453125 0.28125 -0.71875 0.28125 h -1 v -1 c -0.003906 -0.265625 0.09375 -0.53125 0.28125 -0.71875 l 1.25 -1.25 l -1.28125 -1.28125 c -0.214844 -0.199219 -0.25 -0.464844 -0.25 -0.75 z m -4.75 3 h 1.210938 c 0.308593 0.605469 0.703124 1.175781 1.1875 1.675781 c -0.945313 -0.335937 -1.773438 -0.917969 -2.398438 -1.675781 z m 2.363281 0 h 0.386719 v 0.554688 c -0.140625 -0.179688 -0.269531 -0.363282 -0.386719 -0.554688 z m 0 0" fill="#222222"/></svg>
