<svg xmlns="http://www.w3.org/2000/svg" width="16" height="16">
    <g fill="#222">
        <path d="M0 3.992c0-1.644 1.355-3 3-3h8c1.645 0 3 1.356 3 3v3h-2v-3c0-.562-.438-1-1-1H3c-.563 0-1 .438-1 1v5c0 .563.438 1 1 1h3v2H3c-1.645 0-3-1.355-3-3zm0 0"/>
        <path fill-opacity=".349" d="M10 8.992c-1.09 0-2 .91-2 2v2c0 1.09.91 2 2 2h4c1.09 0 2-.91 2-2v-2c0-1.09-.91-2-2-2zm0 2h4v2h-4zm0 0"/>
        <path d="M4 7.5a.499.499 0 1 1-1 0 .499.499 0 1 1 1 0zm3-3a.499.499 0 1 1-1 0 .499.499 0 1 1 1 0zm0 0"/>
        <path d="M6.5 5H3V4h3.5zm0 0"/>
        <path d="M3 7.5V4h1v3.5zm0 0"/>
        <path d="M3.648 4.648a.5.5 0 0 1 .707 0l3.5 3.5a.507.507 0 0 1 0 .707.507.507 0 0 1-.707 0l-3.5-3.5a.5.5 0 0 1 0-.707zm0 0"/>
    </g>
</svg>
