<svg xmlns="http://www.w3.org/2000/svg" width="16" height="16">
    <path fill="#222" d="M8 .043c-.398 0-.816.16-1.125.469L.5 6.887a1.591 1.591 0 0 0 0 2.25l6.375 6.375a1.591 1.591 0 0 0 2.25 0L15.5 9.137a1.591 1.591 0 0 0 0-2.25L9.125.512A1.61 1.61 0 0 0 8 .043zm.152 2.965a2.99 2.99 0 0 1 1.97.87 3.004 3.004 0 0 1 .648 3.27A2.998 2.998 0 0 1 9 8.82V10H7V8c0-.55.45-1 1-1a.99.99 0 0 0 .922-.617.992.992 0 0 0-.215-1.09.992.992 0 0 0-1.09-.215A.99.99 0 0 0 7 6H5c0-1.21.734-2.309 1.852-2.77a2.945 2.945 0 0 1 1.3-.222zM8 11c.55 0 1 .45 1 1s-.45 1-1 1-1-.45-1-1 .45-1 1-1zm0 0"/>
</svg>
