<?xml version="1.0" encoding="UTF-8"?>
<svg xmlns="http://www.w3.org/2000/svg" height="16px" viewBox="0 0 16 16" width="16px"><g fill="#222222"><path d="m 3 0.992188 c -1.644531 0 -3 1.355468 -3 3 v 5 c 0 1.644531 1.355469 3 3 3 h 10 c 1.644531 0 3 -1.355469 3 -3 v -5 c 0 -1.644532 -1.355469 -3 -3 -3 z m 0 2 h 10 c 0.570312 0 1 0.429687 1 1 v 5 c 0 0.570312 -0.429688 1 -1 1 h -10 c -0.570312 0 -1 -0.429688 -1 -1 v -5 c 0 -0.570313 0.429688 -1 1 -1 z m 0 0"/><path d="m 5.503906 14.496094 c 0 0.832031 -0.671875 1.503906 -1.503906 1.503906 s -1.503906 -0.671875 -1.503906 -1.503906 c 0 -0.832032 0.671875 -1.503906 1.503906 -1.503906 s 1.503906 0.671874 1.503906 1.503906 z m 0 0"/><path d="m 9.503906 14.496094 c 0 0.832031 -0.671875 1.503906 -1.503906 1.503906 s -1.503906 -0.671875 -1.503906 -1.503906 c 0 -0.832032 0.671875 -1.503906 1.503906 -1.503906 s 1.503906 0.671874 1.503906 1.503906 z m 0 0"/><path d="m 13.503906 14.496094 c 0 0.832031 -0.671875 1.503906 -1.503906 1.503906 s -1.503906 -0.671875 -1.503906 -1.503906 c 0 -0.832032 0.671875 -1.503906 1.503906 -1.503906 s 1.503906 0.671874 1.503906 1.503906 z m 0 0"/></g></svg>
