<?xml version="1.0" encoding="UTF-8"?>
<svg xmlns="http://www.w3.org/2000/svg" height="16px" viewBox="0 0 16 16" width="16px"><path d="m 7.972656 0.125 c -0.476562 0.011719 -0.847656 0.269531 -1.058594 0.496094 c -0.210937 0.226562 -0.335937 0.453125 -0.445312 0.683594 c -0.226562 0.464843 -0.386719 0.96875 -0.542969 1.453124 c -0.160156 0.480469 -0.320312 0.9375 -0.453125 1.199219 c -0.019531 0.039063 -0.015625 0.03125 -0.035156 0.058594 h -3.59375 c -0.449219 0 -0.847656 0.285156 -0.976562 0.699219 c -0.234376 0.746094 0.101562 1.226562 0.371093 1.648437 s 0.609375 0.816407 0.949219 1.203125 c 0.34375 0.386719 0.691406 0.753906 0.949219 1.0625 c 0.261719 0.304688 0.421875 0.605469 0.394531 0.519532 c -0.082031 -0.246094 -0.015625 0.042968 -0.117188 0.390624 c -0.101562 0.347657 -0.269531 0.808594 -0.433593 1.277344 c -0.160157 0.464844 -0.320313 0.941406 -0.398438 1.425782 c -0.039062 0.242187 -0.0625 0.492187 -0.007812 0.789062 c 0.050781 0.292969 0.226562 0.6875 0.589843 0.933594 c 0.359376 0.242187 0.773438 0.269531 1.074219 0.234375 c 0.304688 -0.035157 0.546875 -0.125 0.785157 -0.226563 c 0.480468 -0.203125 0.929687 -0.484375 1.375 -0.761718 c 0.441406 -0.28125 0.875 -0.566407 1.214843 -0.761719 c 0.34375 -0.195313 0.667969 -0.234375 0.445313 -0.234375 c -0.25 0 0.070312 0.035156 0.402344 0.230468 c 0.332031 0.199219 0.75 0.484376 1.183593 0.769532 c 0.433594 0.28125 0.867188 0.566406 1.335938 0.773437 c 0.230469 0.101563 0.472656 0.195313 0.777343 0.230469 c 0.304688 0.035156 0.734376 0 1.09375 -0.261719 c 0.039063 -0.03125 0.078126 -0.066406 0.113282 -0.101562 c 0.515625 -0.511719 0.558594 -1.214844 0.476562 -1.730469 c -0.082031 -0.511719 -0.265625 -0.972656 -0.441406 -1.414062 c -0.175781 -0.441407 -0.351562 -0.859376 -0.445312 -1.183594 c -0.09375 -0.324219 -0.070313 -0.53125 -0.074219 -0.523438 c -0.054688 0.160156 0.085937 -0.109375 0.359375 -0.375 c 0.273437 -0.269531 0.652344 -0.597656 1.027344 -0.957031 s 0.75 -0.742187 1.042968 -1.203125 c 0.296875 -0.457031 0.5625 -1.097656 0.3125 -1.789062 c -0.144531 -0.394532 -0.53125 -0.660157 -0.964844 -0.660157 h -3.59375 c -0.019531 -0.03125 -0.019531 -0.023437 -0.042968 -0.066406 c -0.140625 -0.277344 -0.316406 -0.742187 -0.496094 -1.230469 c -0.175781 -0.488281 -0.359375 -0.996094 -0.597656 -1.457031 c -0.121094 -0.230469 -0.253906 -0.449219 -0.46875 -0.671875 c -0.214844 -0.21875 -0.589844 -0.476562 -1.085938 -0.464844 z m 0.050782 2.800781 c 0.0625 0.164063 0.117187 0.269531 0.179687 0.449219 c 0.179687 0.484375 0.359375 0.992188 0.59375 1.453125 c 0.121094 0.230469 0.25 0.449219 0.457031 0.667969 c 0.210938 0.21875 0.578125 0.484375 1.070313 0.484375 h 2.367187 c -0.097656 0.105469 -0.148437 0.183593 -0.261718 0.296875 c -0.332032 0.316406 -0.703126 0.640625 -1.035157 0.964844 c -0.332031 0.324218 -0.65625 0.570312 -0.851562 1.152343 c -0.210938 0.617188 -0.089844 1.164063 0.050781 1.652344 c 0.140625 0.492187 0.339844 0.953125 0.503906 1.367187 c 0.074219 0.179688 0.089844 0.28125 0.144532 0.4375 c -0.160157 -0.09375 -0.273438 -0.148437 -0.453126 -0.265624 c -0.40625 -0.269532 -0.839843 -0.566407 -1.261718 -0.816407 c -0.425782 -0.253906 -0.761719 -0.523437 -1.464844 -0.523437 c -0.695312 0 -1.050781 0.261718 -1.484375 0.507812 s -0.878906 0.542969 -1.296875 0.808594 c -0.1875 0.117188 -0.316406 0.175781 -0.484375 0.273438 c 0.046875 -0.148438 0.058594 -0.242188 0.113281 -0.402344 c 0.15625 -0.441406 0.332032 -0.914063 0.464844 -1.375 c 0.132812 -0.457032 0.3125 -0.859375 0.09375 -1.519532 c -0.175781 -0.519531 -0.449219 -0.804687 -0.757812 -1.164062 c -0.308594 -0.359375 -0.660157 -0.734375 -0.976563 -1.09375 c -0.101563 -0.117188 -0.152344 -0.195312 -0.246094 -0.304688 h 2.261719 h 0.019531 c 0.464844 -0.011718 0.839844 -0.25 1.0625 -0.476562 c 0.222657 -0.226562 0.355469 -0.453125 0.472657 -0.6875 c 0.238281 -0.46875 0.402343 -0.980469 0.5625 -1.464844 c 0.054687 -0.171875 0.101562 -0.269531 0.15625 -0.429687 z m 0 0" fill="#2e3436"/></svg>
