<svg xmlns="http://www.w3.org/2000/svg" width="16" height="16">
    <path fill="#222" d="M8.004 0a1 1 0 0 0-.953.684L5.6 5.024l-4.59-.016c-.437 0-.827.281-.96.695-.133.418.02.871.379 1.125l3.625 2.555-1.5 4.285a1.002 1.002 0 0 0 1.492 1.172l4.004-2.594 3.898 2.59a.998.998 0 0 0 1.164-.047.998.998 0 0 0 .332-1.117l-1.504-4.29 3.645-2.577a.995.995 0 0 0 .371-1.114.998.998 0 0 0-.945-.699l-4.66-.015L8.949.69A1.003 1.003 0 0 0 8.004 0zm-.012 4.188.684 2.097c.137.41.515.688.945.688l2.254.007-1.703 1.204c-.363.257-.512.726-.363 1.148l.765 2.191L8.61 10.22a1.008 1.008 0 0 0-1.097-.008L5.41 11.574l.785-2.242a1.003 1.003 0 0 0-.367-1.148L4.176 7.02l2.144.007a1 1 0 0 0 .95-.683zm0 0"/>
</svg>
