<?xml version="1.0" encoding="UTF-8"?>
<svg height="16px" viewBox="0 0 16 16" width="16px" xmlns="http://www.w3.org/2000/svg">
    <path d="m 7.25 0.382812 c -0.847656 0 -1.527344 0.683594 -1.527344 1.53125 v 1.53125 h -3.054687 c -0.5625 0 -1.015625 0.453126 -1.015625 1.019532 v 3.0625 h 1.527344 c 0.847656 0 1.527343 0.679687 1.527343 1.53125 c 0 0.847656 -0.679687 1.527344 -1.527343 1.527344 h -1.527344 v 3.0625 c 0 0.566406 0.453125 1.019531 1.015625 1.019531 h 3.054687 v -1.53125 c 0 -0.847657 0.679688 -1.527344 1.527344 -1.527344 s 1.527344 0.679687 1.527344 1.527344 v 1.53125 h 3.054687 c 0.566407 0 1.019531 -0.453125 1.019531 -1.019531 v -3.0625 h 1.527344 c 0.84375 0 1.523438 -0.679688 1.523438 -1.527344 c 0 -0.851563 -0.679688 -1.53125 -1.523438 -1.53125 h -1.527344 v -3.0625 c 0 -0.566406 -0.453124 -1.019532 -1.019531 -1.019532 h -3.054687 v -1.53125 c 0 -0.847656 -0.679688 -1.53125 -1.527344 -1.53125 z m 0 0"/>
</svg>
