<?xml version="1.0" encoding="UTF-8"?>
<svg height="128px" viewBox="0 0 128 128" width="128px" xmlns="http://www.w3.org/2000/svg" xmlns:xlink="http://www.w3.org/1999/xlink">
    <linearGradient id="a" gradientUnits="userSpaceOnUse" x1="12" x2="124" y1="62" y2="62">
        <stop offset="0" stop-color="#003380"/>
        <stop offset="0.392857" stop-color="#0055d4"/>
        <stop offset="1" stop-color="#003380"/>
    </linearGradient>
    <radialGradient id="b" cx="56" cy="68" gradientUnits="userSpaceOnUse" r="56">
        <stop offset="0" stop-color="#55ddff"/>
        <stop offset="1" stop-color="#80b3ff" stop-opacity="0.898039"/>
    </radialGradient>
    <clipPath id="c">
        <rect height="128" width="128"/>
    </clipPath>
    <clipPath id="d">
        <rect height="128" width="128"/>
    </clipPath>
    <filter id="e" height="100%" width="100%" x="0%" y="0%">
        <feColorMatrix in="SourceGraphic" type="matrix" values="0 0 0 0 1 0 0 0 0 1 0 0 0 0 1 0 0 0 1 0"/>
    </filter>
    <mask id="f">
        <g clip-path="url(#d)" filter="url(#e)">
            <g clip-path="url(#c)">
                <path d="m 56 6 c -6.65625 0 -12 5.34375 -12 12 v 12 h -24 c -4.4375 0 -8 3.5625 -8 8 v 24 h 12 c 6.65625 0 12 5.34375 12 12 s -5.34375 12 -12 12 h -12 v 24 c 0 4.4375 3.5625 8 8 8 h 24 v -12 c 0 -6.65625 5.34375 -12 12 -12 s 12 5.34375 12 12 v 12 h 24 c 4.4375 0 8 -3.5625 8 -8 v -24 h 12 c 6.65625 0 12 -5.34375 12 -12 s -5.34375 -12 -12 -12 h -12 v -24 c 0 -4.4375 -3.5625 -8 -8 -8 h -24 v -12 c 0 -6.65625 -5.34375 -12 -12 -12 z m 0 0" fill="url(#a)"/>
                <path d="m 56 0 c -6.65625 0 -12 5.34375 -12 12 v 12 h -24 c -4.4375 0 -8 3.5625 -8 8 v 24 h 12 c 6.65625 0 12 5.34375 12 12 s -5.34375 12 -12 12 h -12 v 24 c 0 4.4375 3.5625 8 8 8 h 24 v -12 c 0 -6.65625 5.34375 -12 12 -12 s 12 5.34375 12 12 v 12 h 24 c 4.4375 0 8 -3.5625 8 -8 v -24 h 12 c 6.65625 0 12 -5.34375 12 -12 s -5.34375 -12 -12 -12 h -12 v -24 c 0 -4.4375 -3.5625 -8 -8 -8 h -24 v -12 c 0 -6.65625 -5.34375 -12 -12 -12 z m 0 0" fill="url(#b)"/>
                <path d="m 56 0 c -6.65625 0 -12 5.34375 -12 12 v 12 h -24 c -4.4375 0 -8 3.5625 -8 8 v 24 h 12 c 6.65625 0 12 5.34375 12 12 h 20 z m 0 68 v 20 c 6.65625 0 12 5.34375 12 12 v 12 h 24 c 4.4375 0 8 -3.5625 8 -8 v -24 h 12 c 6.65625 0 12 -5.34375 12 -12 z m 0 0" fill="#0066ff" fill-opacity="0.301961"/>
            </g>
        </g>
    </mask>
    <mask id="g">
        <g filter="url(#e)">
            <rect fill-opacity="0.8" height="128" width="128"/>
        </g>
    </mask>
    <linearGradient id="h" gradientTransform="matrix(0 0.37 -0.98462 0 295.38501 -30.360001)" gradientUnits="userSpaceOnUse" x1="300" x2="428" y1="235" y2="235">
        <stop offset="0" stop-color="#f9f06b"/>
        <stop offset="1" stop-color="#f5c211"/>
    </linearGradient>
    <clipPath id="i">
        <rect height="128" width="128"/>
    </clipPath>
    <clipPath id="j">
        <rect height="128" width="128"/>
    </clipPath>
    <path d="m 56 6 c -6.65625 0 -12 5.34375 -12 12 v 12 h -24 c -4.4375 0 -8 3.5625 -8 8 v 24 h 12 c 6.65625 0 12 5.34375 12 12 s -5.34375 12 -12 12 h -12 v 24 c 0 4.4375 3.5625 8 8 8 h 24 v -12 c 0 -6.65625 5.34375 -12 12 -12 s 12 5.34375 12 12 v 12 h 24 c 4.4375 0 8 -3.5625 8 -8 v -24 h 12 c 6.65625 0 12 -5.34375 12 -12 s -5.34375 -12 -12 -12 h -12 v -24 c 0 -4.4375 -3.5625 -8 -8 -8 h -24 v -12 c 0 -6.65625 -5.34375 -12 -12 -12 z m 0 0" fill="url(#a)"/>
    <path d="m 56 0 c -6.65625 0 -12 5.34375 -12 12 v 12 h -24 c -4.4375 0 -8 3.5625 -8 8 v 24 h 12 c 6.65625 0 12 5.34375 12 12 s -5.34375 12 -12 12 h -12 v 24 c 0 4.4375 3.5625 8 8 8 h 24 v -12 c 0 -6.65625 5.34375 -12 12 -12 s 12 5.34375 12 12 v 12 h 24 c 4.4375 0 8 -3.5625 8 -8 v -24 h 12 c 6.65625 0 12 -5.34375 12 -12 s -5.34375 -12 -12 -12 h -12 v -24 c 0 -4.4375 -3.5625 -8 -8 -8 h -24 v -12 c 0 -6.65625 -5.34375 -12 -12 -12 z m 0 0" fill="url(#b)"/>
    <path d="m 56 0 c -6.65625 0 -12 5.34375 -12 12 v 12 h -24 c -4.4375 0 -8 3.5625 -8 8 v 24 h 12 c 6.65625 0 12 5.34375 12 12 h 20 z m 0 68 v 20 c 6.65625 0 12 5.34375 12 12 v 12 h 24 c 4.4375 0 8 -3.5625 8 -8 v -24 h 12 c 6.65625 0 12 -5.34375 12 -12 z m 0 0" fill="#0066ff" fill-opacity="0.301961"/>
    <g clip-path="url(#j)" mask="url(#f)">
        <g clip-path="url(#i)" mask="url(#g)">
            <path d="m 128 80.640625 v 47.359375 h -128 v -47.359375 z m 0 0" fill="url(#h)"/>
            <path d="m 13.308594 80.640625 l 47.355468 47.359375 h 21.214844 l -47.359375 -47.359375 z m 42.421875 0 l 47.363281 47.359375 h 21.214844 l -47.363282 -47.359375 z m 42.429687 0 l 29.839844 29.839844 v -21.210938 l -8.628906 -8.628906 z m -98.160156 7.90625 v 21.214844 l 18.238281 18.238281 h 21.214844 z m 0 0"/>
        </g>
    </g>
</svg>
