<?xml version="1.0" encoding="UTF-8"?>
<svg height="128px" viewBox="0 0 128 128" width="128px" xmlns="http://www.w3.org/2000/svg" xmlns:xlink="http://www.w3.org/1999/xlink">
    <linearGradient id="a" gradientTransform="matrix(10.894936 0 0 10.920103 -82.061218 -213.022217)" gradientUnits="userSpaceOnUse" x1="8.966355" x2="18.966356" y1="25.252413" y2="25.252413">
        <stop offset="0" stop-color="#003380"/>
        <stop offset="0.392837" stop-color="#0055d4"/>
        <stop offset="1" stop-color="#003380"/>
    </linearGradient>
    <radialGradient id="b" cx="12.894726" cy="25.794567" gradientTransform="matrix(10.894936 0 0 10.920133 -82.061218 -213.022934)" gradientUnits="userSpaceOnUse" r="5">
        <stop offset="0" stop-color="#55ddff"/>
        <stop offset="1" stop-color="#80b3ff" stop-opacity="0.898039"/>
    </radialGradient>
    <path d="m 58.429688 8.136719 c -6.476563 0 -11.675782 5.210937 -11.675782 11.699219 v 11.699218 h -23.34375 c -4.316406 0 -7.785156 3.472656 -7.785156 7.800782 v 23.402343 h 11.675781 c 6.472657 0 11.671875 5.207031 11.671875 11.699219 c 0 6.488281 -5.199218 11.699219 -11.671875 11.699219 h -11.675781 v 23.402343 c 0 4.324219 3.46875 7.796876 7.785156 7.796876 h 23.34375 v -11.699219 c 0 -6.488281 5.199219 -11.699219 11.675782 -11.699219 c 6.472656 0 11.671874 5.210938 11.671874 11.699219 v 11.699219 h 23.347657 c 4.316406 0 7.78125 -3.472657 7.78125 -7.796876 v -23.402343 h 11.671875 c 6.476562 0 11.671875 -5.210938 11.671875 -11.699219 c 0 -6.492188 -5.195313 -11.699219 -11.671875 -11.699219 h -11.671875 v -23.402343 c 0 -4.328126 -3.464844 -7.800782 -7.78125 -7.800782 h -23.347657 v -11.699218 c 0 -6.488282 -5.199218 -11.699219 -11.671874 -11.699219 z m 0 0" fill="url(#a)"/>
    <path d="m 58.429688 2.359375 c -6.476563 0 -11.675782 5.207031 -11.675782 11.699219 v 11.699218 h -23.34375 c -4.316406 0 -7.785156 3.472657 -7.785156 7.800782 v 23.398437 h 11.675781 c 6.472657 0 11.671875 5.210938 11.671875 11.703125 c 0 6.488282 -5.199218 11.699219 -11.671875 11.699219 h -11.675781 v 23.398437 c 0 4.328126 3.46875 7.800782 7.785156 7.800782 h 23.34375 v -11.699219 c 0 -6.492187 5.199219 -11.699219 11.675782 -11.699219 c 6.472656 0 11.671874 5.207032 11.671874 11.699219 v 11.699219 h 23.347657 c 4.316406 0 7.78125 -3.472656 7.78125 -7.800782 v -23.398437 h 11.671875 c 6.476562 0 11.671875 -5.210937 11.671875 -11.699219 c 0 -6.492187 -5.195313 -11.703125 -11.671875 -11.703125 h -11.671875 v -23.398437 c 0 -4.328125 -3.464844 -7.800782 -7.78125 -7.800782 h -23.347657 v -11.699218 c 0 -6.492188 -5.199218 -11.699219 -11.671874 -11.699219 z m 0 0" fill="url(#b)"/>
    <g fill="#0066ff" fill-opacity="0.301961">
        <path d="m 58.425781 2.355469 c -6.476562 0 -11.671875 5.214843 -11.671875 11.703125 v 11.699218 h -23.347656 c -4.316406 0 -7.78125 3.472657 -7.78125 7.800782 v 23.398437 h 11.671875 c 6.476563 0 11.675781 5.210938 11.675781 11.699219 h 19.453125 z m 0 0"/>
        <path d="m 58.425781 68.65625 v 19.503906 c 6.476563 0 11.675781 5.207032 11.675781 11.699219 v 11.695313 h 23.34375 c 4.316407 0 7.785157 -3.472657 7.785157 -7.796876 v -23.398437 h 11.671875 c 6.476562 0 11.671875 -5.210937 11.671875 -11.703125 z m 0 0"/>
    </g>
</svg>
